<svg id="Grupo_15417" data-name="Grupo 15417" xmlns="http://www.w3.org/2000/svg" width="30.25" height="22" viewBox="0 0 30.25 22">
  <path id="Trazado_7585" data-name="Trazado 7585" d="M16.67,13.13a6.4,6.4,0,0,1,3.2,5.321v4.125h5.5V18.451C25.374,15.454,20.465,13.68,16.67,13.13Z" transform="translate(4.876 -0.576)" fill="#fff"/>
  <path id="Trazado_7586" data-name="Trazado 7586" d="M15.5,15a5.5,5.5,0,0,0,0-11,5.745,5.745,0,0,0-1.829.33,8.222,8.222,0,0,1,0,10.34A5.745,5.745,0,0,0,15.5,15Z" transform="translate(3.751 -4)" fill="#fff"/>
  <path id="Trazado_7587" data-name="Trazado 7587" d="M10.5,15A5.5,5.5,0,1,0,5,9.5,5.5,5.5,0,0,0,10.5,15Zm0-8.25A2.75,2.75,0,1,1,7.75,9.5,2.758,2.758,0,0,1,10.5,6.75Z" transform="translate(0.5 -4)" fill="#fff"/>
  <path id="Trazado_7588" data-name="Trazado 7588" d="M12,13C8.329,13,1,14.843,1,18.5v4.125H23V18.5C23,14.843,15.671,13,12,13Zm8.25,6.875H3.75V18.514c.275-.99,4.538-2.764,8.25-2.764s7.975,1.774,8.25,2.75Z" transform="translate(-1 -0.625)" fill="#fff"/>
</svg>
