<svg xmlns="http://www.w3.org/2000/svg" width="19.829" height="26.439" viewBox="0 0 19.829 26.439">
  <g id="Grupo_15442" data-name="Grupo 15442" transform="translate(-0.001)">
    <path id="Trazado_6596" data-name="Trazado 6596" d="M5.326,4a.826.826,0,0,0,0,1.652h9.915a.826.826,0,0,0,0-1.652ZM4.5,8.131A.827.827,0,0,1,5.326,7.3h9.915a.826.826,0,0,1,0,1.652H5.326A.827.827,0,0,1,4.5,8.131Zm.826,2.479a.826.826,0,0,0,0,1.652h9.915a.826.826,0,0,0,0-1.652Zm0,3.3a.826.826,0,1,0,0,1.652h4.957a.826.826,0,1,0,0-1.652Z" transform="translate(-0.368 2.61)" fill="#fff"/>
    <path id="Trazado_6597" data-name="Trazado 6597" d="M2,3.3A3.3,3.3,0,0,1,5.3,0h13.22a3.3,3.3,0,0,1,3.3,3.3V23.134a3.3,3.3,0,0,1-3.3,3.3H5.3a3.3,3.3,0,0,1-3.3-3.3ZM18.524,1.652H5.3A1.653,1.653,0,0,0,3.652,3.3V23.134A1.653,1.653,0,0,0,5.3,24.787h13.22a1.653,1.653,0,0,0,1.652-1.652V3.3A1.653,1.653,0,0,0,18.524,1.652Z" transform="translate(-1.999)" fill="#fff"/>
  </g>
</svg>
