<svg id="receipt_long_black_24dp" xmlns="http://www.w3.org/2000/svg" width="34" height="34" viewBox="0 0 34 34">
  <path id="Trazado_6548" data-name="Trazado 6548" d="M0,0H34V34H0Z" fill="none"/>
  <g id="Grupo_11168" data-name="Grupo 11168" transform="translate(4.25 2.833)">
    <path id="Trazado_6549" data-name="Trazado 6549" d="M26.375,4.125,24.25,2,22.125,4.125,20,2,17.875,4.125,15.75,2,13.625,4.125,11.5,2,9.375,4.125,7.25,2V21.833H3v4.25a4.244,4.244,0,0,0,4.25,4.25h17a4.244,4.244,0,0,0,4.25-4.25V2ZM20,27.5H7.25a1.421,1.421,0,0,1-1.417-1.417V24.667H20Zm5.667-1.417a1.417,1.417,0,0,1-2.833,0v-4.25H10.083V6.25H25.667Z" transform="translate(-3 -2)" fill="#fff"/>
    <rect id="Rectángulo_3433" data-name="Rectángulo 3433" width="8" height="3" transform="translate(8.75 7.167)" fill="#fff"/>
    <rect id="Rectángulo_3434" data-name="Rectángulo 3434" width="3" height="3" transform="translate(18.75 7.167)" fill="#fff"/>
    <rect id="Rectángulo_3435" data-name="Rectángulo 3435" width="8" height="3" transform="translate(8.75 11.167)" fill="#fff"/>
    <rect id="Rectángulo_3436" data-name="Rectángulo 3436" width="3" height="3" transform="translate(18.75 11.167)" fill="#fff"/>
  </g>
</svg>
