<svg xmlns="http://www.w3.org/2000/svg" xmlns:xlink="http://www.w3.org/1999/xlink" width="397.111" height="193.937" viewBox="0 0 397.111 193.937">
  <defs>
    <clipPath id="clip-path">
      <rect id="Rectángulo_4748" data-name="Rectángulo 4748" width="338.956" height="193.937" fill="none"/>
    </clipPath>
    <clipPath id="clip-path-3">
      <rect id="Rectángulo_4743" data-name="Rectángulo 4743" width="25.031" height="13.061" fill="none"/>
    </clipPath>
    <clipPath id="clip-path-4">
      <rect id="Rectángulo_4744" data-name="Rectángulo 4744" width="155.183" height="78.104" fill="none"/>
    </clipPath>
    <clipPath id="clip-path-5">
      <rect id="Rectángulo_4746" data-name="Rectángulo 4746" width="6.051" height="7.309" fill="none"/>
    </clipPath>
  </defs>
  <g id="Grupo_15460" data-name="Grupo 15460" transform="translate(-812.889 -543.359)">
    <g id="Grupo_12401" data-name="Grupo 12401" transform="translate(17.942 273.719)">
      <path id="Trazado_6943" data-name="Trazado 6943" d="M25.127,486.415S.841,491.456,6.813,511.151c3.12,10.291,25.959,12.671,57.981,12.671q1.125,0,2.239-.01c.684.195,1.374.383,2.078.56,37.635,9.42,89.009.017,135.475-11.809,36.381-9.258,118.745-7.6,144.454-7.6,88.911,0,41.1-18.551,41.1-18.551Z" transform="translate(789.079 -67.274)" fill="#a7c4f1" fill-rule="evenodd"/>
      <path id="Trazado_6946" data-name="Trazado 6946" d="M27.775,219.872H398.707s12.846-62.824-44.158-101.612-139.7-8.741-139.7-8.741S168.784,52.413,100.838,74.01C-9.157,108.974,27.775,219.872,27.775,219.872Z" transform="translate(782.994 200.512)" fill="#cee1fe"/>
    </g>
    <g id="Grupo_12700" data-name="Grupo 12700" transform="translate(854 543.359)">
      <g id="Grupo_12699" data-name="Grupo 12699" clip-path="url(#clip-path)">
        <g id="Grupo_12698" data-name="Grupo 12698">
          <g id="Grupo_12697" data-name="Grupo 12697" clip-path="url(#clip-path)">
            <path id="Trazado_7590" data-name="Trazado 7590" d="M435.109,111.465A43.731,43.731,0,0,1,424.3,122.491q-55.333,30.292-111.513,64.023c-4.465,2.685-16.12,9.734-24.66,13.606a46.308,46.308,0,0,1-5.2,2.057c-1.784.554-3.17.753-3.954.449a9.633,9.633,0,0,1-1.831-.952,11.013,11.013,0,0,1-2.513-2.334q-2.482-1.428-4.969-2.857l-7.338-4.223q-51.475-29.613-102.949-59.238l-9.828-5.656.066-.035c.437-.238.878-.476,1.311-.714,11.5-6.264,22.35-12.2,32.416-17.74,37.673-20.722,64.4-35.811,73.485-41.3,8.251-4.988,16.53-10.652,16.53-10.652,6.811-4.66,10.156-7.069,14.422-10.55,12.982-10.593,16.912-18.353,18.232-21.2a49.013,49.013,0,0,0,3.813-12.3L436.05,86.067l1.393.808a13.624,13.624,0,0,1,3.392,5.3c2.443,7.244-2.6,14.68-5.726,19.289" transform="translate(-102.527 -8.833)" fill="#7781c4"/>
            <path id="Trazado_7591" data-name="Trazado 7591" d="M315.712,220.464c-.051-.058-115.373-67.112-115.373-67.112,49.056-26.8,84.641-46.821,95.342-53.286,4.369-2.64,8.727-5.457,11.614-7.355,2.345-1.542,4.084-2.686,5.364-3.676l-.074.14c6.585-4.506,10.306-7.155,14.947-10.943,9.9-8.078,16.757-16.142,20.381-23.968q.853-1.841,1.572-3.747L467.34,118.841a5.294,5.294,0,0,1,.926,1.631c1.207,3.576-2.546,9.109-4.788,12.415a36.014,36.014,0,0,1-8.536,8.8c-37.388,20.478-74.849,41.99-111.354,63.945l-.384.231c-17.766,10.688-24.816,13.743-27.494,14.6" transform="translate(-137.356 -34.635)" fill="#dfe1f2"/>
            <path id="Trazado_7592" data-name="Trazado 7592" d="M435.109,271.069A43.732,43.732,0,0,1,424.3,282.1q-55.333,30.292-111.513,64.023c-4.465,2.685-16.12,9.735-24.66,13.606a46.3,46.3,0,0,1-5.2,2.057c-1.784.554-3.17.753-3.954.449a9.631,9.631,0,0,1-1.831-.952,11.012,11.012,0,0,1-2.513-2.334q-2.482-1.428-4.969-2.857l-7.338-4.223q-51.475-29.613-102.949-59.238l-9.828-5.656.066-.035c.437-.238.878-.476,1.311-.714q55.123,31.715,110.237,63.43l7.416,4.266,2.42,1.394a10.392,10.392,0,0,0,4.344,3.286,1.642,1.642,0,0,0,.363.094c1.44.258,4.2-.6,7.576-2.061,2.237-.968,4.742-2.193,7.307-3.532,7.311-3.817,15.105-8.528,18.571-10.613q56.141-33.765,111.513-64.023a43.726,43.726,0,0,0,10.812-11.027c3.13-4.609,8.17-12.045,5.726-19.289a12.628,12.628,0,0,0-1.152-2.475l1.393.808a13.624,13.624,0,0,1,3.392,5.3c2.443,7.244-2.6,14.68-5.726,19.289" transform="translate(-102.527 -168.437)" fill="#7781c4"/>
            <path id="Trazado_7593" data-name="Trazado 7593" d="M737.7,112.726c-1.8,1.763-6.173,6.042-9.672,4.774a4.368,4.368,0,0,1-1.824-1.318L600.873,43.045l19.251-25.394L745.875,90.039l.039.023c-.168,4.949-1.2,15.8-8.211,22.664" transform="translate(-411.97 -12.102)" fill="#5f669c"/>
            <path id="Trazado_7594" data-name="Trazado 7594" d="M727.119,78.1c-.316-.058-.679-.117-1.081-.168a16.526,16.526,0,0,0-7.994.913c-7.307,2.818-9.9,10.238-10.749,12.654a24.842,24.842,0,0,0-.925,12.576L581.036,30.943,572.82,26.15c-2.28-8.072-.051-16.483,5.741-21.51A20.21,20.21,0,0,1,592.531.022Q659.825,39.067,727.119,78.1" transform="translate(-392.133 0)" fill="#7781c4"/>
            <g id="Grupo_12690" data-name="Grupo 12690" transform="translate(160.567 180.733)" style="mix-blend-mode: multiply;isolation: isolate">
              <g id="Grupo_12689" data-name="Grupo 12689">
                <g id="Grupo_12688" data-name="Grupo 12688" clip-path="url(#clip-path-3)">
                  <path id="Trazado_7595" data-name="Trazado 7595" d="M535.769,585.44a18.592,18.592,0,0,1-5.2,2.057,17.376,17.376,0,0,1-3.954.449,9.622,9.622,0,0,1-1.831-.953l-14.02-8.173c-.277-.406,1.835-7.022,10.6-2.158,2.639,1.464,5.792,3.333,9.551,5.683q2.272,1.428,4.852,3.1" transform="translate(-510.738 -574.885)" fill="#b3b3b3"/>
                </g>
              </g>
            </g>
            <g id="Grupo_12693" data-name="Grupo 12693" transform="translate(179.806 0.001)" style="mix-blend-mode: multiply;isolation: isolate">
              <g id="Grupo_12692" data-name="Grupo 12692">
                <g id="Grupo_12691" data-name="Grupo 12691" clip-path="url(#clip-path-4)">
                  <path id="Trazado_7596" data-name="Trazado 7596" d="M581.357,7.442a20.209,20.209,0,0,1,13.971-4.616l129.27,75a18.564,18.564,0,0,1,2.52.287L592.529.027a20.208,20.208,0,0,0-13.971,4.615c-5.792,5.029-8.02,13.437-5.741,21.51l2.46,1.435c-1.675-7.643.614-15.4,6.081-20.146" transform="translate(-571.936 -0.004)" fill="#f2f2f2"/>
                </g>
              </g>
            </g>
            <path id="Trazado_7597" data-name="Trazado 7597" d="M374.963,249.539c-1.607-1.425-5.25.073-6.336.534a18.4,18.4,0,0,0-7.143,5.777C348.4,271.8,347.891,272.184,346.861,274.8c-1.6,4.061-1.43,5.821-3.727,8.743-2.577,3.279-4.182,2.828-8.442,6.362-2.48,2.057-8.564,7.105-8.745,13.931a12.529,12.529,0,0,0,.74,4.518c6.233-4.262,8.349-6.074,8.918-6.866.118-.164.571-.841,1.212-.86a1.464,1.464,0,0,1,1.018.516c1.336,1.331,1.665,3.331,2.3,5.106a14.233,14.233,0,0,0,14.678,9.028c2.164-.267,4.379-1.042,6.468-.417,1.789.536,3.643,2.057,5.279,1.155,1.007-.555,1.452-1.877,2.515-2.316,1.013-.418,2.273.11,3.22-.44,1.43-.83.61-3.259-.924-3.875s-3.257-.149-4.906-.026a11.527,11.527,0,0,1-5.164-.809,2.7,2.7,0,0,1-1.5-1.144c-.485-.971.2-2.152,1.083-2.784s1.963-.963,2.793-1.662a5.975,5.975,0,0,0,1.754-4.721c-.025-1.736-.445-3.445-.516-5.179-.177-4.31,1.794-8.407,4.019-12.1a12.478,12.478,0,0,0,2.1-4.83c.2-1.759-.674-3.789-2.383-4.251a5.423,5.423,0,0,0-3,.334c-3.028.958-6.3,2.346-7.6,5.244-.537,1.2-.672,2.546-1.191,3.753s-1.638,2.335-2.946,2.209c-1.893-.183-2.568-2.661-2.28-4.542a11.442,11.442,0,0,1,3.481-6.584c1.4-1.308,3.241-2.406,3.735-4.262a19.068,19.068,0,0,0,.207-2.907,2.518,2.518,0,0,1,1.524-2.287,2.558,2.558,0,0,1,2.563,1.3,14.561,14.561,0,0,0,1.709,2.538,3.454,3.454,0,0,0,5.4-1.5,20.816,20.816,0,0,0,.246-2.866c.34-2.43,2.407-4.176,3.91-6.116s2.387-5.018.551-6.647" transform="translate(-223.473 -170.677)" fill="#c2c9ff"/>
            <path id="Trazado_7598" data-name="Trazado 7598" d="M521.877,450.757c-1.609.27-2.984,1.375-4.593,1.646-2.631.444-5.216-1.42-7.863-1.094a7.448,7.448,0,0,0-2.56.9,8.732,8.732,0,0,0-4.091,4.022c-.767,1.793,1.012,8.532,2.08,9.179a7.7,7.7,0,0,0,3.628.758c4.04.221,8.367,1.061,11.138,4.009,1.615,1.717,2.518,3.963,3.755,5.969a20.361,20.361,0,0,0,10.517,8.456,7,7,0,0,0,3.451.481,3.087,3.087,0,0,0,2.546-2.137,3.638,3.638,0,0,0-1.467-3.378c-.979-.843-2.169-1.418-3.121-2.292-1.866-1.715-2.578-4.357-2.779-6.883s.018-5.085-.391-7.587a2.983,2.983,0,0,0-.574-1.509,8.849,8.849,0,0,0-1.218-.911c-1.147-.93-1.294-2.581-1.647-4.015-.773-3.146-3.618-6.151-6.812-5.615" transform="translate(-344.581 -309.005)" fill="#c2c9ff"/>
            <path id="Trazado_7599" data-name="Trazado 7599" d="M530.546,152.732a157.177,157.177,0,0,0-20.471,14.744c-6.3,5.37-9.478,8.039-11.421,11.711-1.993,3.766-2.96,8.36-6.367,10.919-2.243,1.684-5.285,2.235-7.183,4.3a9.015,9.015,0,0,0-1.892,6.914,5.371,5.371,0,0,0,1,3,2.368,2.368,0,0,0,2.863.727,8.015,8.015,0,0,0,1.389-1.4,3.3,3.3,0,0,1,3.125-.79c.3,1.453-1.241,2.529-2.43,3.418-3.459,2.588-2.867,3.9-3.253,4.9-.18.466-1.8,4.65.229,6.591,1.349,1.294,4.009,1.294,4.73.288.4-.564-.048-1.1.082-2.339a6.147,6.147,0,0,1,1.927-3.6c1.716-1.7,4.427-3.469,6.273-1.915a6.237,6.237,0,0,0,1.072.94c1.31.664,2.55-.9,3.652-1.872a5.336,5.336,0,0,1,4.628-1.18l-3.908,4.839a11.464,11.464,0,0,1-3.633,3.356c-1.494.729-4.373.426-4.373.426-3.366,1.121-5.674,4.494-6.153,8.009a15.9,15.9,0,0,0,2.472,10.143,12.178,12.178,0,0,0,5.907,5.457c2.568.939,5.836.315,7.344-1.965.638-.965.919-2.125,1.52-3.113a2.766,2.766,0,0,1,2.844-1.526,3.557,3.557,0,0,1,1.087.6l13.869,9.92a16.816,16.816,0,0,0,5.979,3.154c2.218.482,4.841-.133,6.055-2.051,1.091-1.724.782-4-.01-5.883s-2.01-3.564-2.73-5.473c-.914-2.424-1.026-5.2-2.56-7.292-1.153-1.568-3.049-2.648-3.634-4.5-.794-2.52,1.163-5.53-.225-7.778a3.152,3.152,0,0,0-4.962-.211c-.044-1.892,1.218-3.522,2.046-5.223s1.074-4.1-.483-5.178a30.547,30.547,0,0,1-7.567,1.593c-.347-1.174.819-2.3,2-2.6s2.457-.135,3.637-.459c1.884-.517,3.25-2.2,5.1-2.834,4.849-1.654,9.621,4.537,14.6,3.329.68-2.564-3.744-3.588-4.416-6.154-.516-1.971,1.579-3.782,3.607-3.98s4,.618,6.005.979a2.762,2.762,0,0,0,2.518-.465c.613-.646.2-2.341.713-2.526,1.538-.551,1.523-2.958.328-4.071s-1.081-5-1.2-7.357a5.777,5.777,0,0,0-3.634-4.658,16.994,16.994,0,0,0-6.089-1.076,6.543,6.543,0,0,1,4.62-4.424,3.647,3.647,0,0,0,1.791-.7,2.1,2.1,0,0,0,.294-2.179,4.814,4.814,0,0,0-3.766-2.894c-1.833-.316-2.5.705-4.868.7a9.031,9.031,0,0,1-3.272-.644,3.033,3.033,0,0,1-1.061-2.505c.183-1.157,1.336-1.325,3.671-3.357a34.893,34.893,0,0,1,2.891-2.4,7.277,7.277,0,0,0,3.08-2.182c.034-.04.139-.089.164-.2.181-.784-3.607-3.119-7.236-2.98a9.8,9.8,0,0,0-6.32,2.981" transform="translate(-331.265 -102.668)" fill="#c2c9ff"/>
            <path id="Trazado_7600" data-name="Trazado 7600" d="M772.833,271.358c-2.337-1.07-5.354-.628-7.247-2.366a20.721,20.721,0,0,1,1.095,2.606,2.5,2.5,0,0,1-.662,2.481,1.939,1.939,0,0,1-2.473.091,3.647,3.647,0,0,0-.778-.684c-.6-.271-1.259.183-1.758.61a5.491,5.491,0,0,0-2.42,4L757.7,282.4a3.062,3.062,0,0,1-.357,1.053,12,12,0,0,1-.854.927c-.764.95-.545,2.327-.286,3.518a20.669,20.669,0,0,0,2.2,6.512,1.085,1.085,0,0,0,1.217.629,5.064,5.064,0,0,0,2.3-.555c2.262-1.27,2.463-4.626,4.522-6.2a1.489,1.489,0,0,1,.769-.347,1.693,1.693,0,0,1,.652.118,18.363,18.363,0,0,0,3.826,1.21,5.113,5.113,0,0,0,3.41-.889,6.474,6.474,0,0,0,2.451-3.939,13.661,13.661,0,0,0,.056-4.723,15.107,15.107,0,0,0-1.323-4.826,7.478,7.478,0,0,0-3.445-3.529" transform="translate(-518.299 -184.426)" fill="#c2c9ff"/>
            <path id="Trazado_7601" data-name="Trazado 7601" d="M704.452,287.548a4.526,4.526,0,0,1-1.937.29,5.864,5.864,0,0,1-2.63-1.486,6.439,6.439,0,0,0-2.446-1.288,2.955,2.955,0,0,0-2.62.565,13.086,13.086,0,0,0,1.988,1.992l-3.771.089a1.2,1.2,0,0,0,1.227,1.4s1.055.076,1.86.221c3.466.622,7.09.923,10.465-.082s6.468-3.539,7.308-6.958a27.179,27.179,0,0,1-9.443,5.251" transform="translate(-475.14 -193.548)" fill="#c2c9ff"/>
            <path id="Trazado_7602" data-name="Trazado 7602" d="M734.5,247.4a13.22,13.22,0,0,0-9.464,2.8,25.235,25.235,0,0,1-2.473,1.975,3.731,3.731,0,0,1-3.02.552,5.71,5.71,0,0,1-2.611-2.563A15.657,15.657,0,0,0,711,244.6c-.324-.155-.856-.192-.9.164a.585.585,0,0,0,.036.24,52.81,52.81,0,0,0,3.995,8.307q-.237,1.778-.385,3.566a3.282,3.282,0,0,0,.506,2.535,2.252,2.252,0,0,0,2.247.491,6.623,6.623,0,0,0,2.092-1.189,2.444,2.444,0,0,0,.819-.846,6.661,6.661,0,0,0,.251-.963c.351-1.169,1.677-1.715,2.867-1.987s2.518-.49,3.288-1.437a13.574,13.574,0,0,1,.829-1.164,3.921,3.921,0,0,1,2.2-.81,21.509,21.509,0,0,0,7.183-2.59.617.617,0,0,0,.336-.347.494.494,0,0,0-.089-.36,2.242,2.242,0,0,0-1.771-.812" transform="translate(-486.851 -167.626)" fill="#c2c9ff"/>
            <path id="Trazado_7603" data-name="Trazado 7603" d="M653.929,385.354a1.078,1.078,0,0,0-.485,1.239,6.31,6.31,0,0,0,.6,1.308,29.8,29.8,0,0,1,.454,4,4.574,4.574,0,0,0,2.471,3.623.79.79,0,0,0,1.26-.552,5.676,5.676,0,0,0,0-3.549,16.887,16.887,0,0,0-1.5-3.278A13.753,13.753,0,0,0,655.388,386c-.362-.445-.932-.877-1.459-.651" transform="translate(-447.991 -264.163)" fill="#c2c9ff"/>
            <path id="Trazado_7604" data-name="Trazado 7604" d="M535.088,201.082a15.281,15.281,0,0,1-5.586,9.023c-3.014,2.173-6.732,3.37-10.207,4.582a124.331,124.331,0,0,1-22.6,5.572c-6.392.952-13.266.735-19.416,2.922,2.21-11.558,3.365-24.422-4.053-34.383a24.628,24.628,0,0,0-5.766-5.492c-2.508-1.749-5.3-3.272-6.872-6.012-2.989-5.217-.847-12.025,1.35-17.119.689-1.6-1.664-2.991-2.359-1.379-2.134,4.948-3.874,10.474-2.818,15.906a13.007,13.007,0,0,0,3.929,7.036c2.166,2.013,4.859,3.326,7.112,5.223,10.921,9.2,8.953,25.126,6.438,37.538-5.081,2.673-9.031,7.2-12.016,12.028-3.626,5.864-5.8,13.5-12.059,17.216-6.911,4.11-13.484-1.008-17-6.963-1.772-3-3.092-6.234-4.68-9.328a65.828,65.828,0,0,0-5.229-8.52,68.72,68.72,0,0,0-13.565-14.054c-5.693-4.414-12.659-9.035-20.092-9.308-6.353-.234-12.856,3.906-13.453,10.581-.157,1.751,2.576,1.74,2.732,0,.3-3.314,2.876-5.856,5.85-7.061,3.344-1.355,7.081-.813,10.392.361,6.32,2.242,12.181,6.6,17.072,11.1a65.712,65.712,0,0,1,12.594,15.8c3.3,5.788,5.3,12.625,10.263,17.3,4.416,4.16,10.447,5.716,15.967,2.746,5.593-3.01,8.36-8.807,11.177-14.212,3.217,1,5.76,2.242,7.5,5.4a46.5,46.5,0,0,1,4.258,10.993,1.367,1.367,0,0,0,2.634-.726,45.252,45.252,0,0,0-5.133-12.692c-1.868-3-4.76-4.4-7.943-5.427,2.951-5.236,6.842-10.166,12.264-12.966,3.475-1.794,7.371-2.349,11.218-2.715,3.729-.355,7.447-.7,11.15-1.276a124.44,124.44,0,0,0,24.617-6.453c3.511-1.318,7.124-2.718,9.914-5.311a18.509,18.509,0,0,0,5.048-9.211c.425-1.706-2.209-2.434-2.634-.726" transform="translate(-257.889 -108.383)" fill="#fff"/>
            <path id="Trazado_7605" data-name="Trazado 7605" d="M641.99,161.242c0,.814-.952,1.477-2.122,1.477s-2.122-.662-2.122-1.477.952-1.477,2.122-1.477,2.122.663,2.122,1.477" transform="translate(-437.251 -109.538)" fill="#fe81df"/>
            <path id="Trazado_7606" data-name="Trazado 7606" d="M636.355,156.2c-2.061,0-3.733,1.163-3.733,2.6s1.672,2.6,3.733,2.6,3.733-1.163,3.733-2.6-1.671-2.6-3.733-2.6m0,4.836c-1.774,0-3.217-1-3.217-2.239s1.443-2.239,3.217-2.239,3.217,1,3.217,2.239-1.443,2.239-3.217,2.239" transform="translate(-433.738 -107.093)" fill="#fe81df"/>
            <path id="Trazado_7607" data-name="Trazado 7607" d="M641.99,161.242c0,.814-.952,1.477-2.122,1.477s-2.122-.662-2.122-1.477.952-1.477,2.122-1.477,2.122.663,2.122,1.477" transform="translate(-437.251 -109.538)" fill="#fe81df"/>
            <path id="Trazado_7608" data-name="Trazado 7608" d="M641.99,161.242c0,.814-.952,1.477-2.122,1.477s-2.122-.662-2.122-1.477.952-1.477,2.122-1.477,2.122.663,2.122,1.477" transform="translate(-437.251 -109.538)" fill="#fe81df"/>
            <path id="Trazado_7609" data-name="Trazado 7609" d="M687.942,479.751c0,1.591-1.859,2.884-4.145,2.884s-4.145-1.294-4.145-2.884,1.859-2.884,4.145-2.884,4.145,1.295,4.145,2.884" transform="translate(-465.982 -326.949)" fill="#fe81df"/>
            <path id="Trazado_7610" data-name="Trazado 7610" d="M676.934,469.9c-4.027,0-7.292,2.272-7.292,5.074s3.265,5.074,7.292,5.074,7.292-2.271,7.292-5.074-3.264-5.074-7.292-5.074m0,9.447c-3.465,0-6.285-1.961-6.285-4.373s2.82-4.373,6.285-4.373,6.285,1.962,6.285,4.373-2.82,4.373-6.285,4.373" transform="translate(-459.119 -322.174)" fill="#fe81df"/>
            <path id="Trazado_7611" data-name="Trazado 7611" d="M687.942,479.751c0,1.591-1.859,2.884-4.145,2.884s-4.145-1.294-4.145-2.884,1.859-2.884,4.145-2.884,4.145,1.295,4.145,2.884" transform="translate(-465.982 -326.949)" fill="#fe81df"/>
            <path id="Trazado_7612" data-name="Trazado 7612" d="M687.942,479.751c0,1.591-1.859,2.884-4.145,2.884s-4.145-1.294-4.145-2.884,1.859-2.884,4.145-2.884,4.145,1.295,4.145,2.884" transform="translate(-465.982 -326.949)" fill="#fe81df"/>
            <path id="Trazado_7613" data-name="Trazado 7613" d="M651.528,265.311a.2.2,0,0,1-.194-.178,22.192,22.192,0,0,0-.481-3.056.2.2,0,0,1,.38-.088,22.588,22.588,0,0,1,.489,3.11.2.2,0,0,1-.178.211h-.017m-1.4-6.065a.2.2,0,0,1-.182-.124,20.662,20.662,0,0,0-1.335-2.787.2.2,0,0,1,.338-.195,21.1,21.1,0,0,1,1.361,2.84.195.195,0,0,1-.182.266m-3.067-5.419a.2.2,0,0,1-.156-.077,15.65,15.65,0,0,0-2.082-2.27.2.2,0,0,1,.26-.292,16.109,16.109,0,0,1,2.133,2.325.2.2,0,0,1-.156.313m-4.644-4.107a.193.193,0,0,1-.1-.025l-.038-.021a14.671,14.671,0,0,0-2.788-1.193.2.2,0,1,1,.116-.373,15.055,15.055,0,0,1,2.862,1.225l.038.022a.2.2,0,0,1-.1.365m-3.128-3.319a.2.2,0,0,1-.174-.284,30.883,30.883,0,0,1,1.568-2.722.2.2,0,1,1,.328.212,30.522,30.522,0,0,0-1.548,2.688.2.2,0,0,1-.174.107m3.384-5.236a.2.2,0,0,1-.152-.318c.408-.509.838-1.009,1.275-1.489q.406-.444.814-.857a.2.2,0,1,1,.278.274q-.4.407-.8.846c-.432.473-.856.967-1.259,1.47a.194.194,0,0,1-.152.073m4.38-4.436a.195.195,0,0,1-.124-.346,30.7,30.7,0,0,1,2.524-1.871.2.2,0,0,1,.216.325,30.477,30.477,0,0,0-2.492,1.846.192.192,0,0,1-.124.045m5.193-3.451a.2.2,0,0,1-.091-.368l.228-.119c.185-.874.357-1.757.51-2.627a.2.2,0,0,1,.226-.158.2.2,0,0,1,.158.226c-.16.9-.339,1.823-.532,2.731a.2.2,0,0,1-.1.133l-.306.159a.192.192,0,0,1-.091.023m1.324-5.969-.027,0a.2.2,0,0,1-.167-.22c.141-1.023.263-2.064.364-3.094a.2.2,0,0,1,.389.038c-.1,1.035-.225,2.081-.366,3.108a.2.2,0,0,1-.193.169m.61-6.214h-.013a.2.2,0,0,1-.183-.207c.069-1.122.132-2.151.179-3.115a.19.19,0,0,1,.2-.185.2.2,0,0,1,.185.2c-.047.965-.11,2-.179,3.12a.2.2,0,0,1-.194.183m.264-6.238a.2.2,0,0,1-.195-.195c0-1.115-.051-2.129-.148-3.1a.2.2,0,1,1,.388-.039c.1.981.148,2.007.15,3.136a.2.2,0,0,1-.195.2Zm-.639-6.2a.2.2,0,0,1-.19-.153l-.067-.3c-.17-.751-.382-1.684-.672-2.719a.2.2,0,1,1,.376-.105c.293,1.044.506,1.983.677,2.738l.068.307a.2.2,0,0,1-.149.232.213.213,0,0,1-.042,0m-1.731-6a.194.194,0,0,1-.181-.123,23.936,23.936,0,0,0-1.316-2.8.2.2,0,1,1,.342-.189,24.271,24.271,0,0,1,1.337,2.848.2.2,0,0,1-.11.253.193.193,0,0,1-.072.014m-3.039-5.432a.194.194,0,0,1-.154-.075,18.179,18.179,0,0,0-2.091-2.269.2.2,0,1,1,.263-.288,18.542,18.542,0,0,1,2.136,2.317.2.2,0,0,1-.035.274.193.193,0,0,1-.119.041m-4.611-4.15a.193.193,0,0,1-.1-.027c-.283-.166-.556-.316-.827-.465a16.692,16.692,0,0,1-1.865-1.14.2.2,0,0,1,.229-.316,16.155,16.155,0,0,0,1.823,1.114c.274.15.551.3.837.47a.2.2,0,0,1-.1.363m-5-3.674a.2.2,0,0,1-.14-.059,23.151,23.151,0,0,1-2.051-2.388.2.2,0,0,1,.314-.232,22.71,22.71,0,0,0,2.017,2.348.2.2,0,0,1-.14.331m-3.655-5.032a.2.2,0,0,1-.175-.11,15.013,15.013,0,0,1-1.078-2.968.2.2,0,1,1,.379-.093,14.591,14.591,0,0,0,1.05,2.89.2.2,0,0,1-.175.281m-1.474-6.019a.2.2,0,0,1-.2-.191c0-.116,0-.231,0-.346a15.81,15.81,0,0,1,.255-2.8.2.2,0,0,1,.384.069,15.426,15.426,0,0,0-.249,2.732q0,.167,0,.337a.2.2,0,0,1-.19.2Zm1.077-6.115a.192.192,0,0,1-.068-.012.2.2,0,0,1-.115-.251,19.913,19.913,0,0,1,1.328-2.859.2.2,0,0,1,.34.192,19.515,19.515,0,0,0-1.3,2.8.2.2,0,0,1-.183.127" transform="translate(-434.75 -115.884)" fill="#7781c4"/>
            <path id="Trazado_7614" data-name="Trazado 7614" d="M676.378,381.455a9.5,9.5,0,1,0-14.067,0l7.034,14.247Z" transform="translate(-452.403 -250.644)" fill="#fe81df"/>
            <path id="Trazado_7615" data-name="Trazado 7615" d="M676.341,388.36a6.289,6.289,0,1,1,6.29-6.29,6.3,6.3,0,0,1-6.29,6.29" transform="translate(-459.4 -257.643)" fill="#fff"/>
            <path id="Trazado_7616" data-name="Trazado 7616" d="M628.987,67.7a9.5,9.5,0,1,0-14.067,0l7.034,14.247Z" transform="translate(-419.911 -35.525)" fill="#fe81df"/>
            <path id="Trazado_7617" data-name="Trazado 7617" d="M628.951,74.6a6.289,6.289,0,1,1,6.29-6.29,6.3,6.3,0,0,1-6.29,6.29" transform="translate(-426.908 -42.523)" fill="#fff"/>
            <path id="Trazado_7618" data-name="Trazado 7618" d="M269.783,346.414a24.852,24.852,0,0,0-10.492,6.994c-1.51,1.722-5.812,6.628-5.886,13.193a14.85,14.85,0,0,0,.16,2.393,15.993,15.993,0,0,0,1.815,5.351,18.608,18.608,0,0,0,2,2.916l-.562-.328-14.02-8.173q-51.879-30.24-103.75-60.479-4.883-2.845-9.762-5.691-3.068-1.792-6.14-3.579a20.668,20.668,0,0,1-2.83-14.926c1.62-7.525,7.822-13.567,15.9-15.581l26.8,15.632Z" transform="translate(-82.21 -184.091)" fill="#7781c4"/>
            <path id="Trazado_7619" data-name="Trazado 7619" d="M81.322,386.793a24.341,24.341,0,0,0-.828-9.939,17.566,17.566,0,0,0-1.869-4.377l-.008.147c-.175.381-1.416,2.984-3.72,3.322-1.874.274-3.667-1.063-5.1-2.132a12.925,12.925,0,0,1-1.173-.988,9.49,9.49,0,0,0,3.258-.583c1.023-.38,1.37-.719,2.051-.959a5.509,5.509,0,0,1,4.193.475,12.61,12.61,0,0,0-3.616-2.961,26.674,26.674,0,0,1-3.925-2.578,7,7,0,0,1-1.992-2.826c-.34.687-1.554,2.854-3.643,3.16-1.874.274-3.667-1.063-5.1-2.132a12.883,12.883,0,0,1-1.173-.988,9.49,9.49,0,0,0,3.258-.584c1.023-.38,1.37-.719,2.051-.959a5.6,5.6,0,0,1,4.323.535,23.424,23.424,0,0,1-.428-5.155c0-.838.05-1.673.105-2.508-.463.854-1.634,2.637-3.515,2.913s-3.667-1.063-5.1-2.132a12.97,12.97,0,0,1-1.173-.988,9.474,9.474,0,0,0,3.258-.583c1.023-.38,1.37-.719,2.051-.959.931-.328,2.367-.427,4.551.644.025-.43.047-.86.058-1.292a7.025,7.025,0,0,0-1.579-5.148l-.018.306c-.175.381-1.415,2.984-3.72,3.322-1.874.275-3.667-1.063-5.1-2.132a12.938,12.938,0,0,1-1.173-.988,9.481,9.481,0,0,0,3.258-.584c1.023-.38,1.371-.719,2.051-.959a5.408,5.408,0,0,1,4.043.41,12.5,12.5,0,0,0-3.581-1.924l-.4.292c-.422.11-3.332.829-5.123-.8-1.456-1.325-1.563-3.649-1.649-5.506a13.338,13.338,0,0,1,.021-1.594,9.867,9.867,0,0,0,2.617,2.235c.98.572,1.482.627,2.123,1.017.879.534,1.908,1.626,2.486,4.1a13.324,13.324,0,0,1,3.54,1.867,6.237,6.237,0,0,1,2.191,3.234,4.777,4.777,0,0,1,1.6-3.671c1.413-1.039,3.461-.724,5.1-.473a11.969,11.969,0,0,1,1.388.3,8.785,8.785,0,0,0-2.412,1.893c-.672.755-.809,1.184-1.261,1.675-.635.69-1.808,1.414-4.177,1.455l-.024-.052a23.386,23.386,0,0,1-.091,4.268q-.106,1.584-.068,3.171l.013-.08c.2-.335,1.578-2.621,3.732-2.722,1.752-.082,3.283,1.314,4.507,2.431a12,12,0,0,1,.991,1.018,8.785,8.785,0,0,0-3.056.24c-.977.257-1.329.538-1.978.7-.9.219-2.247.176-4.192-1.045q.039,1,.135,1.99a12.618,12.618,0,0,0,.335,1.981l.06.03-.009.155a6.355,6.355,0,0,0,1.446,2.646,11.947,11.947,0,0,0,2.508,1.958l.035-.445c.169-.349,1.369-2.735,3.51-3,1.74-.218,3.375,1.056,4.681,2.074a11.993,11.993,0,0,1,1.067.938,8.785,8.785,0,0,0-3.028.477c-.954.332-1.283.639-1.917.848a4.773,4.773,0,0,1-3.363-.3l.423.248a16.058,16.058,0,0,1,3.774,2.768,9.017,9.017,0,0,1,.8,1.016l.017.009v.015a15.833,15.833,0,0,1,1.771,3.735,24.638,24.638,0,0,1,1.166,11.066.134.134,0,0,1-.267-.034" transform="translate(-37.782 -231.097)" fill="#ffa8da"/>
            <path id="Trazado_7620" data-name="Trazado 7620" d="M21.622,487.591a21.76,21.76,0,0,0,9.462.465,31.518,31.518,0,0,0,11.68-3.441c.2-.109.551-.3,1-.572a.558.558,0,0,0,.069-.04c.042-.02.085-.046.13-.069.152-.089.311-.189.486-.28,3.314-2.072,9.957-6.961,10.54-13.911.04-.4.425-5.457-2-6.6-3.047-1.394-8.317,4.276-9.443,3.255-.567-.52.588-2.057,1.274-4.271,1.586-4.961.514-12.086-3.642-14.08a6.859,6.859,0,0,0-6.677.589c-3.258,2.206-2.364,7.885-2.842,7.907-.693,0,.808-11.069-4.569-14.473-1.893-1.186-4.792-1.524-6.315-.3-2.229,1.795-.512,6.23-1.788,6.727-1.352.527-3.024-4.466-8.324-6.917-1.349-.612-4.514-2.07-7.228-.654a6.679,6.679,0,0,0-3.375,6.638A6.66,6.66,0,0,0,2.592,451.7c3.092,2.492,5.987.843,12.1,3.082,2.135.774,4.382,1.923,4.24,2.679-.141.55-1.512.37-3.285,1.387a.9.9,0,0,0-.167.1,6.17,6.17,0,0,0-2.961,3.462c-.034.081-.548,2.269.685,3.423a3,3,0,0,0,1.833.72c3.657.376,8.074,1.949,8.029,2.548-.032.687-5.922.026-6.81,2.145-.735,1.762,2.39,4.442,2.794,4.787,3.382,2.859,7.721,3.146,7.652,3.469-.07.272-3.407-.819-6.7.6-1.536.65-3.877,2.176-3.777,3.832.1,2.038,3.825,3.186,5.4,3.664" transform="translate(0 -301.898)" fill="#acabff"/>
            <path id="Trazado_7621" data-name="Trazado 7621" d="M56.772,492.156a1.855,1.855,0,0,1,1.955-.843,7.588,7.588,0,0,1,2.636.769c1.745.822,3.322,2.08,5.235,2.506a4.69,4.69,0,0,0,2.9-.2,69.135,69.135,0,0,1-4.622-7.853c-.528-1-1.054-2.014-1.591-3.019-2.649-1.521-5.9-.354-8.69-1.4a4.491,4.491,0,0,1-1.915-1.33c-.085-.1.084-.225.169-.122a5.632,5.632,0,0,0,3.973,1.713c1.445.134,2.9,0,4.343.221a6.494,6.494,0,0,1,1.947.6,47.2,47.2,0,0,0-4.977-7.743,20.8,20.8,0,0,0-8.912-6.636c-.447-.155-.9-.29-1.356-.4-.128-.035-.1-.239.034-.21a19.182,19.182,0,0,1,9.1,5.648c.424.446.826.91,1.217,1.382a.1.1,0,0,1,.018-.072c1.114-1.475.439-3.393-.262-4.883a16.378,16.378,0,0,1-1.049-2.491,3.075,3.075,0,0,1,.032-2.227c.061-.119.252-.036.191.084a3.353,3.353,0,0,0,.148,2.61c.322.879.781,1.7,1.148,2.558.6,1.412.956,3.152-.046,4.479a.087.087,0,0,1-.113.025,51.444,51.444,0,0,1,5.53,8.743c.9,1.689,1.773,3.394,2.7,5.071a9.116,9.116,0,0,0,3.669-5.6,8.568,8.568,0,0,0-.1-3.6,17.2,17.2,0,0,1-.67-3.962,3.939,3.939,0,0,1,1.75-3.43c.115-.066.238.1.122.169a3.809,3.809,0,0,0-1.666,3.464,22.107,22.107,0,0,0,.729,4.017,8.361,8.361,0,0,1,.026,3.453,9.47,9.47,0,0,1-1.242,3.028,8.95,8.95,0,0,1-2.515,2.651,48.788,48.788,0,0,0,3.746,5.893,27.332,27.332,0,0,0,3.263,3.618c.235-3.361,3.36-5.472,4.755-8.321a5.77,5.77,0,0,0,.644-2.668c0-.133.2-.155.207-.02.081,3.431-3.053,5.661-4.571,8.417a6.353,6.353,0,0,0-.836,2.685.082.082,0,0,1-.031.059A19.8,19.8,0,0,0,76.72,501.2c-.045.023-.088.048-.13.069a.55.55,0,0,1-.069.04,21.942,21.942,0,0,1-4.794-4.089,31.469,31.469,0,0,1-2.108-2.651,5.758,5.758,0,0,1-4.751-.368c-1.707-.791-3.233-1.989-5.069-2.487-.847-.229-2.389-.5-2.837.527a.1.1,0,0,1-.191-.084" transform="translate(-32.762 -319.162)" fill="#fff"/>
            <path id="Trazado_7622" data-name="Trazado 7622" d="M143.57,577.662c0,3.634-13.778,6.579-30.774,6.579s-30.774-2.946-30.774-6.579,13.778-6.579,30.774-6.579,30.774,2.946,30.774,6.579" transform="translate(-56.236 -391.545)" fill="#cee1fe"/>
            <path id="Trazado_7623" data-name="Trazado 7623" d="M128.136,285.061h25.315s9.522,38.87,7.241,50.542c-2.5,12.809-9.946,25.831-13.089,33.037l2.095,12.832-9.427-10.65L142.5,367.2c1.746-5.609,6.436-28.683,7.222-32.713.866-4.441-9.1-29.872-9.1-29.872.44,20.252-1.2,53.572-1.4,65.469,0,0,1.1,14.871-2.706,14.967-3.841.1-3.492-14.967-3.492-14.967-2.608-31.53-13.428-67.123-4.888-85.023" transform="translate(-85.64 -195.443)" fill="#fbd6de"/>
            <path id="Trazado_7624" data-name="Trazado 7624" d="M175.684,546.331s-3.139,1.688-2.19,4.428,7.529,11,9,10.771-.562-6.173-.562-6.173c-2.558.041-5.129-4.011-6.25-9.026" transform="translate(-118.828 -374.575)" fill="#3b397a"/>
            <path id="Trazado_7625" data-name="Trazado 7625" d="M156.852,560.595s1.746,13.368-2.743,13.368c-4.379,0-3.549-13.368-3.549-13.368.808,7.821,5.823,7.977,6.292,0" transform="translate(-103.184 -384.354)" fill="#3b397a"/>
            <path id="Trazado_7626" data-name="Trazado 7626" d="M130.8,78.833a6.532,6.532,0,0,0-9.043-6.677,21.672,21.672,0,0,0-6.436,3.616c-3.132,2.265-6.48,4.839-7.409,8.591-1.077,4.349,1.445,9.1-.059,13.326-1.078,3.028-3.939,4.972-6.248,7.207s-4.261,5.632-2.894,8.541c1.559,3.313,6.416,3.855,8.211,7.046,1.131,2.01.738,4.562,1.637,6.686a5.84,5.84,0,0,0,10.951-.532c.473-1.513.318-3.171.819-4.676.771-2.316,2.911-3.84,4.552-5.647A14.189,14.189,0,0,0,126.9,99.952c3.311-4.151,5.26-8.693,2.023-15.227a10.59,10.59,0,0,0,1.876-5.892" transform="translate(-67.369 -49.223)" fill="#3b397a"/>
            <rect id="Rectángulo_4745" data-name="Rectángulo 4745" width="15.948" height="7.512" transform="translate(78.351 61.25) rotate(-70.315)" fill="#3b397a"/>
            <path id="Trazado_7627" data-name="Trazado 7627" d="M80.623,228.478c2.353,1.872,5.454-3.694,5.454-3.694s.854,4.029,1.7,2.772-.518-4.665-.518-4.665l.782-2.57,8.715-28.611-.628-21.264c-5.524,2.333-10.573,37.836-12.011,48.814-.266,2.018-.405,3.205-.405,3.205s-5.44,4.134-3.087,6.013" transform="translate(-54.872 -116.861)" fill="#fbd6de"/>
            <path id="Trazado_7628" data-name="Trazado 7628" d="M217.744,187.611s.5,10.133,5.789,10.573c4.442.377,9-17.256,12.507-21.746,3.373-4.323,3.75-7.97,1.453-9.342-6.067-3.623-1.453,5.15-4.239,7.2l-7.43,11.8-7.465-19.364Z" transform="translate(-149.289 -113.969)" fill="#fbd6de"/>
            <path id="Trazado_7629" data-name="Trazado 7629" d="M156.655,330.288c-14.388-1.838-23.3,3.351-35.01.708a2.657,2.657,0,0,1-2.05-2.414c-1.172-17.549-.259-33.374,4.58-43.516h25.315s8.371,28.43,8.646,43.9a1.316,1.316,0,0,1-1.48,1.327" transform="translate(-81.681 -195.446)" fill="#3b397a"/>
            <path id="Trazado_7630" data-name="Trazado 7630" d="M103.585,156.238l11.242-6.417a.192.192,0,0,1,.1-.026l6.122.147a.169.169,0,0,1,.078.019c.513.265,6.6,3.389,9.247,4.752a3.523,3.523,0,0,1,1.7,1.918l6.592,17.886a.188.188,0,0,0,.336.036l7.151-11.283a.188.188,0,0,1,.274-.048l2.509,1.942a.183.183,0,0,1,.064.207c-1.945,5.5-8.126,21.773-12.55,21.773-4.05,0-7-10.222-7.758-11.457-.18.2,2.347,17.1,1.768,17.088-7.649,2.641-17.441,2.737-26.406.131-.1,0,3.165-20.053,3.165-20.053-.451,4.256-11.169,35.594-11.266,35.571-1.138-.267-3.729-.865-5-1.223a.179.179,0,0,1-.131-.2c1.5-11.167,7.265-48.459,12.77-50.764" transform="translate(-62.264 -102.702)" fill="#fe81df"/>
            <path id="Trazado_7631" data-name="Trazado 7631" d="M173.056,137.056c-1.942,2.613-3.672,2.821-5.245,1.256a8.01,8.01,0,0,1-1.081-1.389l.655-5.921,1.55.117,3.141.234c.057.2.174.858.307,1.669.127.767.273,1.667.4,2.439.114.7.216,1.3.276,1.594" transform="translate(-114.313 -89.818)" fill="#fbd6de"/>
            <g id="Grupo_12696" data-name="Grupo 12696" transform="translate(52.417 41.185)" style="mix-blend-mode: multiply;isolation: isolate">
              <g id="Grupo_12695" data-name="Grupo 12695">
                <g id="Grupo_12694" data-name="Grupo 12694" clip-path="url(#clip-path-5)">
                  <path id="Trazado_7632" data-name="Trazado 7632" d="M172.78,135.463s-3.828-.554-4.55.528a4.47,4.47,0,0,0-.419,2.322,8.011,8.011,0,0,1-1.082-1.389l.655-5.921,1.55.117,1.651.832,1.8,1.071c.127.767.273,1.667.4,2.439" transform="translate(-166.729 -131.003)" fill="#ccc"/>
                </g>
              </g>
            </g>
            <path id="Trazado_7633" data-name="Trazado 7633" d="M153.233,97.017s-2.732-3.554-3.569-1.815c-1.507,3.132,2.771,5.367,2.771,5.367,2.477,3.595,4.418,6.279,8.964,5.535,5.653-.926,5.476-14.591,1.809-16.849a16.164,16.164,0,0,1-9.975,7.762" transform="translate(-102.392 -61.195)" fill="#fbd6de"/>
            <path id="Trazado_7634" data-name="Trazado 7634" d="M193.64,91.543s-3.7-2.12-3.466-5.221l1.093-1.542,1.2,2.345a5.823,5.823,0,0,1,1.175,4.418" transform="translate(-130.38 -58.127)" fill="#13144c"/>
          </g>
        </g>
      </g>
    </g>
  </g>
</svg>
