<svg id="Grupo_12675" data-name="Grupo 12675" xmlns="http://www.w3.org/2000/svg" width="23.3" height="27.961" viewBox="0 0 23.3 27.961">
  <path id="Trazado_6600" data-name="Trazado 6600" d="M9.99,5.5a3.5,3.5,0,0,1,3.5-3.5h2.33a3.5,3.5,0,0,1,3.5,3.5v2.33a3.5,3.5,0,0,1-3.5,3.5v2.33H21.64a1.165,1.165,0,0,1,1.165,1.165v2.33a1.165,1.165,0,0,1-2.33,0V15.98H8.825v1.165a1.165,1.165,0,0,1-2.33,0v-2.33A1.165,1.165,0,0,1,7.66,13.65h5.825V11.32a3.5,3.5,0,0,1-3.5-3.5Zm5.825,3.5A1.165,1.165,0,0,0,16.98,7.825V5.5A1.165,1.165,0,0,0,15.815,4.33h-2.33A1.165,1.165,0,0,0,12.32,5.5v2.33A1.165,1.165,0,0,0,13.485,8.99ZM3,24.135a3.5,3.5,0,0,1,3.5-3.5h2.33a3.5,3.5,0,0,1,3.5,3.5v2.33a3.5,3.5,0,0,1-3.5,3.5H6.5a3.5,3.5,0,0,1-3.5-3.5ZM6.5,22.97A1.165,1.165,0,0,0,5.33,24.135v2.33A1.165,1.165,0,0,0,6.5,27.63h2.33A1.165,1.165,0,0,0,9.99,26.465v-2.33A1.165,1.165,0,0,0,8.825,22.97ZM16.98,24.135a3.5,3.5,0,0,1,3.5-3.5h2.33a3.5,3.5,0,0,1,3.5,3.5v2.33a3.5,3.5,0,0,1-3.5,3.5h-2.33a3.5,3.5,0,0,1-3.5-3.5Zm3.5-1.165a1.165,1.165,0,0,0-1.165,1.165v2.33a1.165,1.165,0,0,0,1.165,1.165h2.33a1.165,1.165,0,0,0,1.165-1.165v-2.33a1.165,1.165,0,0,0-1.165-1.165Z" transform="translate(-3 -2)" fill="#fff" fill-rule="evenodd"/>
</svg>
